<svg width="85" height="85" viewBox="0 0 85 85" fill="none" xmlns="http://www.w3.org/2000/svg">
<path d="M40.9302 5.45979V0C18.5814 0.746637 0.604651 18.8526 0 41.3217H5.44186C6.04651 21.8625 21.5814 6.20642 40.9302 5.45979Z" fill="#00B1F0"/>
<path d="M5.46505 44.1917H0.0231934C0.883658 66.4274 18.7441 84.2534 40.9302 85V79.5403C21.7441 78.817 6.32552 63.3942 5.46505 44.1917Z" fill="#00B1F0"/>
<path d="M43.7908 79.5403V85C65.9768 84.2767 83.8605 66.4274 84.721 44.1917H79.2791C78.4187 63.4176 62.9768 78.817 43.7908 79.5403Z" fill="#00B1F0"/>
<path d="M85.0001 9.14636H75.6047L73.3024 0.606689L70.4419 9.14636H68.6745H61.6047L68.7675 14.3262L68.2326 16.0294L66.0699 22.9591L70.9768 19.0393L72.9768 17.476L79.721 22.3525L80.535 22.9591L77.2559 14.4195L85.0001 9.14636Z" fill="#00B1F0"/>
<path d="M27.0232 25.969H31.9069V41.3218H35.372V25.969H40.2558V22.7491H27.0232V25.969Z" fill="#00B1F0"/>
<path d="M52.9303 33.2954C53.8141 32.9687 54.5582 32.4321 55.1862 31.7088C55.9303 30.8455 56.3024 29.7255 56.3024 28.3489C56.3024 27.5556 56.1629 26.809 55.8838 26.109C55.6048 25.409 55.2094 24.8257 54.6745 24.3124C54.1629 23.8224 53.535 23.4258 52.8141 23.1691C52.0931 22.8891 51.2792 22.7491 50.3955 22.7491H43.1396V41.2984H46.6048V33.832H49.3257L53.0699 41.3218H57.0931L52.9303 33.2954ZM46.6048 25.969H50.1862C51.0001 25.969 51.628 26.179 52.1164 26.6223C52.5815 27.0423 52.8141 27.6256 52.8141 28.3956C52.8141 29.1656 52.5815 29.7489 52.1164 30.1689C51.628 30.5888 51.0001 30.7988 50.1862 30.7988H46.6048V25.969Z" fill="#00B1F0"/>
<path d="M31.6047 49.5581C31.6744 49.1848 31.7674 48.8581 31.8837 48.6248C32 48.3682 32.1628 48.1582 32.3488 47.9482C32.6279 47.6449 32.9768 47.4115 33.3721 47.2249C33.7674 47.0382 34.2093 46.9449 34.6977 46.9449C35.6047 46.9449 36.3256 47.1782 36.8837 47.6682C37.4419 48.1582 37.8372 48.8815 38.0465 49.7914L38.1163 50.0948H41.6047L41.5349 49.6281C41.3954 48.8115 41.1395 48.0415 40.7907 47.3182C40.4419 46.5949 39.9768 45.9649 39.3954 45.4283C38.814 44.8916 38.1395 44.4483 37.3488 44.145C36.5581 43.8417 35.6744 43.6783 34.6744 43.6783C33.6744 43.6783 32.7674 43.865 31.9302 44.215C31.1163 44.565 30.3721 45.0783 29.7209 45.7316C29.2558 46.1982 28.907 46.7116 28.6512 47.2482C28.3954 47.7615 28.2326 48.3448 28.1163 48.9515C28 49.5581 27.9302 50.2114 27.9302 50.9347C27.907 51.6347 27.907 52.428 27.907 53.3146C27.907 54.1779 27.907 54.9946 27.9302 55.6945C27.9535 56.4178 28.0233 57.0945 28.1163 57.6778C28.2326 58.2844 28.4186 58.8677 28.6512 59.3811C28.907 59.9177 29.2558 60.431 29.7209 60.8977C30.3721 61.551 31.1163 62.0643 31.9535 62.4143C32.7907 62.7643 33.6977 62.9509 34.6744 62.9509C35.6744 62.9509 36.6047 62.7876 37.4651 62.4376C38.3256 62.0876 39.1395 61.5276 39.8605 60.7577C40.4884 60.081 40.9302 59.2877 41.1861 58.4478C41.4419 57.6078 41.5581 56.5812 41.5581 55.3679V52.1947H34.2791V55.2979H38.0698V55.9279C38.0698 56.4878 38 56.9778 37.8837 57.3978C37.7674 57.7945 37.5581 58.1911 37.2558 58.5178C36.9535 58.8678 36.5581 59.1711 36.1163 59.3577C35.6744 59.5677 35.1628 59.6611 34.6512 59.6611C34.1628 59.6611 33.7209 59.5677 33.3256 59.4044C32.9302 59.2411 32.5814 58.9844 32.3023 58.7044C32.1163 58.4944 31.9535 58.2611 31.8372 58.0045C31.7209 57.7711 31.6279 57.4445 31.5581 57.0712C31.4884 56.6745 31.4419 56.1612 31.3954 55.5779C31.3721 54.9712 31.3488 54.2246 31.3488 53.3146C31.3488 52.4047 31.3721 51.6347 31.3954 51.0514C31.4884 50.4681 31.5349 49.9548 31.6047 49.5581Z" fill="#00B1F0"/>
<path d="M57.6977 50.9347C57.6745 50.2114 57.628 49.5348 57.5117 48.9515C57.3954 48.3448 57.2326 47.7615 56.9768 47.2482C56.721 46.7116 56.3722 46.1982 55.907 45.7316C55.2559 45.0783 54.5117 44.565 53.6745 44.215C52.8373 43.865 51.9303 43.6783 50.9303 43.6783C49.9303 43.6783 49.0233 43.865 48.1861 44.215C47.3721 44.565 46.628 45.0783 45.9768 45.7316C45.5117 46.1982 45.1628 46.7116 44.907 47.2482C44.6512 47.7615 44.4884 48.3448 44.3721 48.9515C44.2559 49.5581 44.1861 50.2114 44.1861 50.9347C44.1628 51.6347 44.1628 52.428 44.1628 53.3146C44.1628 54.2013 44.1628 54.9946 44.1861 55.6945C44.2094 56.4178 44.2791 57.0945 44.3721 57.6778C44.4884 58.2844 44.6745 58.8677 44.907 59.3811C45.1628 59.9177 45.5117 60.431 45.9768 60.8977C46.628 61.551 47.3721 62.0643 48.1861 62.4143C49.0001 62.7643 49.9303 62.9509 50.9303 62.9509C51.9303 62.9509 52.8605 62.7643 53.6745 62.4143C54.5117 62.0643 55.2559 61.551 55.907 60.8977C56.3722 60.431 56.721 59.9177 56.9768 59.3811C57.2326 58.8677 57.3954 58.2844 57.5117 57.6778C57.6047 57.0712 57.6745 56.4178 57.6977 55.6945C57.721 54.9946 57.721 54.1779 57.721 53.3146C57.721 52.4513 57.6977 51.6347 57.6977 50.9347ZM54.2326 53.3146C54.2326 54.2246 54.2094 54.9946 54.1861 55.5779C54.1629 56.1612 54.1163 56.6512 54.0466 57.0478C53.9768 57.4211 53.8838 57.7478 53.7675 57.9811C53.6512 58.2378 53.4884 58.4711 53.3024 58.6578C53.0233 58.9611 52.6745 59.1944 52.2791 59.3811C51.4652 59.7544 50.4187 59.731 49.628 59.3811C49.2094 59.1944 48.8605 58.9611 48.6047 58.6578C48.4187 58.4478 48.2559 58.2144 48.1396 57.9578C48.0233 57.7245 47.9303 57.3978 47.8605 57.0245C47.7908 56.6278 47.7442 56.1379 47.721 55.5545C47.6977 54.9479 47.6745 54.2013 47.6745 53.2913C47.6745 52.3813 47.6977 51.6347 47.721 51.0281C47.7442 50.4447 47.7908 49.9548 47.8605 49.5581C47.9303 49.1848 48.0233 48.8581 48.1396 48.6248C48.2559 48.3682 48.4187 48.1582 48.6047 47.9482C48.8838 47.6449 49.2326 47.4115 49.6512 47.2249C50.0466 47.0382 50.5117 46.9449 50.9768 46.9449C51.4419 46.9449 51.907 47.0382 52.3024 47.2249C52.721 47.4115 53.0466 47.6449 53.3256 47.9482C53.5117 48.1582 53.6745 48.3915 53.7908 48.6482C53.907 48.8815 54.0001 49.2081 54.0698 49.5814C54.1396 49.9781 54.1861 50.4681 54.2094 51.0514C54.2094 51.6347 54.2326 52.3813 54.2326 53.3146Z" fill="#00B1F0"/>
</svg>
