<svg width="94" height="21" viewBox="0 0 94 21" fill="none" xmlns="http://www.w3.org/2000/svg">
<g clip-path="url(#clip0_29_16)">
<path d="M64.2524 18V14.724L61.3844 9.62404H63.4244L65.2244 12.96H65.2484L66.9764 9.62404H68.9564L66.0884 14.712V18H64.2524ZM73.1369 16.944H73.0769C73.0209 17.104 72.9449 17.256 72.8489 17.4C72.7609 17.544 72.6449 17.672 72.5009 17.784C72.3569 17.896 72.1849 17.984 71.9849 18.048C71.7929 18.112 71.5689 18.144 71.3129 18.144C70.6649 18.144 70.1729 17.932 69.8369 17.508C69.5089 17.076 69.3449 16.46 69.3449 15.66V11.7H71.1209V15.504C71.1209 15.888 71.1889 16.184 71.3249 16.392C71.4609 16.6 71.6929 16.704 72.0209 16.704C72.1569 16.704 72.2929 16.684 72.4289 16.644C72.5649 16.604 72.6849 16.548 72.7889 16.476C72.8929 16.396 72.9769 16.3 73.0409 16.188C73.1049 16.076 73.1369 15.944 73.1369 15.792V11.7H74.9129V18H73.1369V16.944ZM70.8209 10.8C70.4609 10.8 70.2089 10.728 70.0649 10.584C69.9289 10.432 69.8609 10.252 69.8609 10.044V9.74404C69.8609 9.53604 69.9289 9.36004 70.0649 9.21604C70.2089 9.06404 70.4609 8.98804 70.8209 8.98804C71.1809 8.98804 71.4289 9.06404 71.5649 9.21604C71.7089 9.36004 71.7809 9.53604 71.7809 9.74404V10.044C71.7809 10.252 71.7089 10.432 71.5649 10.584C71.4289 10.728 71.1809 10.8 70.8209 10.8ZM73.4609 10.8C73.1009 10.8 72.8489 10.728 72.7049 10.584C72.5689 10.432 72.5009 10.252 72.5009 10.044V9.74404C72.5009 9.53604 72.5689 9.36004 72.7049 9.21604C72.8489 9.06404 73.1009 8.98804 73.4609 8.98804C73.8209 8.98804 74.0689 9.06404 74.2049 9.21604C74.3489 9.36004 74.4209 9.53604 74.4209 9.74404V10.044C74.4209 10.252 74.3489 10.432 74.2049 10.584C74.0689 10.728 73.8209 10.8 73.4609 10.8ZM76.5653 9.12004H78.3413V14.364H78.4133L79.1933 13.2L80.4533 11.7H82.4213L80.3213 14.112L82.6613 18H80.5493L79.1333 15.336L78.3413 16.224V18H76.5653V9.12004ZM85.2551 18C84.6471 18 84.1991 17.852 83.9111 17.556C83.6311 17.26 83.4911 16.832 83.4911 16.272V9.12004H85.2671V16.62H86.0591V18H85.2551ZM89.7519 18.144C89.2719 18.144 88.8439 18.068 88.4679 17.916C88.0919 17.756 87.7719 17.536 87.5079 17.256C87.2519 16.968 87.0559 16.62 86.9199 16.212C86.7919 15.804 86.7279 15.348 86.7279 14.844C86.7279 14.348 86.7919 13.9 86.9199 13.5C87.0479 13.092 87.2359 12.744 87.4839 12.456C87.7399 12.168 88.0519 11.948 88.4199 11.796C88.7879 11.636 89.2079 11.556 89.6799 11.556C90.1999 11.556 90.6439 11.644 91.0119 11.82C91.3879 11.996 91.6919 12.232 91.9239 12.528C92.1639 12.824 92.3359 13.168 92.4399 13.56C92.5519 13.944 92.6079 14.348 92.6079 14.772V15.3H88.5639V15.396C88.5639 15.812 88.6759 16.144 88.8999 16.392C89.1239 16.632 89.4759 16.752 89.9559 16.752C90.3239 16.752 90.6239 16.68 90.8559 16.536C91.0879 16.384 91.3039 16.204 91.5039 15.996L92.3919 17.1C92.1119 17.428 91.7439 17.684 91.2879 17.868C90.8399 18.052 90.3279 18.144 89.7519 18.144ZM89.7159 12.864C89.3559 12.864 89.0719 12.984 88.8639 13.224C88.6639 13.456 88.5639 13.768 88.5639 14.16V14.256H90.7719V14.148C90.7719 13.764 90.6839 13.456 90.5079 13.224C90.3399 12.984 90.0759 12.864 89.7159 12.864Z" fill="#54565A"/>
<path fill-rule="evenodd" clip-rule="evenodd" d="M40.4145 14.0048L39.4031 16.6561L38.2164 19.768L37.7962 20.8697C37.7962 20.8697 32.1587 20.9999 29.1271 20.9999C25.1535 20.9999 24.4668 18.2784 25.2771 15.7485C25.7977 14.1236 27.059 10.8649 27.6896 9.28443C28.0649 8.34329 29.1332 6.93958 32.2167 6.93958L44.2797 6.93974C42.9524 7.7021 41.8324 8.89743 41.2353 10.2733H33.3087C32.3971 10.2733 32.1456 10.9667 32.0701 11.1435C31.5874 12.2766 30.8261 14.5651 30.1312 16.6513C29.8957 17.3581 30.3871 17.7092 30.8697 17.7092L33.9867 17.704L35.4175 14.0048H40.4145Z" fill="#54565A"/>
<path d="M47.5141 12.1523H47.6665L48.2527 12.154L50.1693 12.1523C52.6035 12.1523 53.9507 14.1092 53.1786 16.5233C52.4059 18.9373 49.8066 20.8943 47.3724 20.8943H46.9098H43.0082H38.6729L39.8835 17.5602H47.6227C48.26 17.5602 48.9407 17.0482 49.1427 16.416C49.345 15.7843 48.9923 15.2717 48.3551 15.2717H47.3514L44.6456 15.2681C42.3331 15.2681 41.053 13.4095 41.787 11.1162C42.5204 8.82286 44.9899 6.96387 47.3023 6.96387H47.7416H51.4484H56.2766L55.0059 10.2976H47.0647C46.4591 10.2976 45.8127 10.6174 45.6207 11.218C45.4283 11.8184 45.7635 12.1523 46.3688 12.1523H47.5141Z" fill="#54565A"/>
<path d="M17.4387 20.8513L19.551 15.1412H18.5497H17.4717H12.1854H8.60498C8.60498 15.1412 9.00072 12.1987 12.8805 12.1987H17.4717H18.5497H20.6268L22.548 6.97705H27.5678L22.5031 20.8513H17.4387ZM15.7593 15.5231L13.8085 20.8696H8.76677L10.7355 15.5231H15.7593ZM12.0866 11.8546L13.8758 6.99533H18.8731L17.0999 11.8546H12.0866Z" fill="#54565A"/>
<path fill-rule="evenodd" clip-rule="evenodd" d="M10.8525 10.361C9.87703 11.6547 8.7982 12.4866 8.44275 12.2195C8.08826 11.9519 8.59079 10.6854 9.56558 9.39094C10.5407 8.09709 11.6195 7.26467 11.9752 7.53292C12.33 7.8002 11.8273 9.06687 10.8525 10.361ZM3.37591 10.1054C2.01459 11.297 0.842247 11.8547 0.30073 11.4479C-0.597216 10.7708 0.583704 7.68857 2.93778 4.5642C5.29169 1.44016 7.92987 -0.544051 8.82749 0.132238C9.38373 0.551765 9.14298 1.89269 8.32011 3.59458C8.57056 2.84969 8.57461 2.29248 8.28484 2.07422C7.62489 1.57671 5.6863 3.03543 3.95577 5.33174C2.22573 7.62773 1.35788 9.89314 2.01815 10.3913C2.2877 10.5935 2.77016 10.4709 3.36572 10.0973L3.37591 10.1054ZM8.64127 8.81302C7.53995 10.2744 6.32117 11.2151 5.91993 10.9126C5.51836 10.6103 6.08657 9.17948 7.18773 7.71801C8.28953 6.25574 9.50815 5.31573 9.90939 5.61779C10.3108 5.9205 9.74355 7.35107 8.64127 8.81302ZM8.84173 8.96397C10.8046 6.36042 11.7886 3.79116 11.0398 3.22699C10.2914 2.66282 8.09279 4.31715 6.13042 6.92103C4.16837 9.5249 3.18402 12.0949 3.93247 12.6578C4.68125 13.2228 6.88 11.5686 8.84173 8.96397Z" fill="#54565A"/>
</g>
<defs>
<clipPath id="clip0_29_16">
<rect width="94" height="21" fill="white"/>
</clipPath>
</defs>
</svg>
