<svg width="41" height="24" viewBox="0 0 41 24" fill="none" xmlns="http://www.w3.org/2000/svg">
<path d="M30.8905 0V0.325738C31.4585 0.391483 32.0114 0.490101 32.5464 0.618603C33.0813 0.750093 33.502 0.998133 33.8085 1.3687C33.9408 1.52111 34.0339 1.73926 34.088 2.02017C34.1421 2.30407 34.1872 2.62383 34.2203 2.98244C34.2533 3.34105 34.2683 3.71759 34.2683 4.10908V15.4621C34.2683 15.8536 34.2653 16.2211 34.2593 16.5768C34.1211 16.5499 33.9889 16.517 33.8747 16.4632C33.6823 16.3736 33.52 16.269 33.3908 16.1524C33.2616 16.0329 33.1564 15.9193 33.0783 15.8058C33.0001 15.6922 32.9491 15.6145 32.925 15.5697C32.7898 15.2768 32.6666 15.0168 32.5614 14.7837C32.4532 14.5536 32.339 14.2637 32.2128 13.9141C31.9423 13.2058 31.6688 12.4886 31.3984 11.7624C31.1279 11.0362 30.8454 10.2861 30.5569 9.50915C30.2684 8.73216 29.9649 7.92529 29.6493 7.08554C29.3338 6.24879 28.9972 5.36123 28.6486 4.42884H28.5134C28.4683 4.50654 28.4022 4.60814 28.318 4.73366C28.2339 4.85917 28.1287 4.98767 28.0055 5.12215C27.8793 5.25663 27.738 5.38513 27.5727 5.51065C27.4075 5.63616 27.2241 5.74075 27.0228 5.83041L27.1911 6.20097C26.9206 6.83153 26.6321 7.5099 26.3256 8.23609C26.0191 8.96227 25.7125 9.68248 25.4 10.3967C25.0874 11.1109 24.7869 11.8072 24.4924 12.4826C24.4113 12.6709 24.3301 12.8532 24.252 13.0295C24.1829 12.4348 23.9845 11.9208 23.6449 11.4935C23.2212 10.9585 22.6262 10.5521 21.8599 10.2712C21.6465 10.1935 21.4391 10.1188 21.2408 10.053C21.0424 9.98431 20.8471 9.92155 20.6578 9.8588C20.4654 9.79604 20.2701 9.73328 20.0748 9.66455C19.8764 9.59582 19.6661 9.51812 19.4407 9.42846C18.8637 9.21629 18.3979 8.92641 18.0342 8.5678C17.6706 8.20919 17.4933 7.73104 17.4933 7.13336C17.4933 6.75084 17.5594 6.41016 17.6886 6.11132C17.8179 5.81248 18.0012 5.56145 18.2326 5.36122C18.464 5.15801 18.7344 5.0056 19.047 4.90699C19.3595 4.80538 19.6901 4.75458 20.0387 4.75458C20.4805 4.75458 20.8802 4.84423 21.2438 5.02353C21.6074 5.20284 21.929 5.43594 22.2115 5.72282C22.494 6.00971 22.7434 6.33545 22.9598 6.70302C23.1731 7.06761 23.3504 7.43818 23.4857 7.80874H23.672V4.68584H23.4857C23.3955 4.82032 23.2963 4.9548 23.1882 5.09227C23.08 5.22675 23.0108 5.29548 22.9748 5.29548C22.9628 5.29548 22.8997 5.25364 22.7794 5.16997C22.6592 5.08629 22.4849 4.99365 22.2535 4.89204C22.0221 4.79044 21.7246 4.6978 21.364 4.61412C21.0034 4.53044 20.5676 4.48861 20.0567 4.48861C19.5128 4.48861 18.9959 4.56033 18.503 4.70078C18.0102 4.84124 17.5774 5.0594 17.1988 5.34927C16.8231 5.64214 16.5226 6.00672 16.3002 6.44602C16.0778 6.88532 15.9667 7.40829 15.9667 8.01494C15.9667 8.37654 16.0298 8.71423 16.153 9.03698C16.2762 9.35674 16.4415 9.64961 16.6458 9.91558C16.8502 10.1815 17.0876 10.4117 17.3581 10.6089C17.6285 10.8061 17.911 10.9615 18.2055 11.0721C18.467 11.1737 18.6894 11.2544 18.8757 11.3171C19.062 11.3799 19.2423 11.4427 19.4196 11.5024C19.5939 11.5652 19.7833 11.6279 19.9876 11.6967C20.192 11.7654 20.4294 11.8491 20.6998 11.9507C20.9703 12.0523 21.2258 12.1659 21.4632 12.2884C21.7006 12.4109 21.9079 12.5603 22.0822 12.7366C22.2565 12.91 22.3948 13.1162 22.497 13.3523C22.5991 13.5883 22.6502 13.8633 22.6502 14.1801C22.6502 14.957 22.3888 15.5727 21.8689 16.0269C21.349 16.4811 20.6698 16.7112 19.8313 16.7112C19.5368 16.7112 19.2303 16.6604 18.9148 16.5588C18.5992 16.4572 18.3438 16.3556 18.1514 16.254C17.9591 16.1524 17.7578 16.006 17.5504 15.8147C17.34 15.6235 17.1417 15.4023 16.9554 15.1483C16.769 14.8943 16.5947 14.6253 16.4385 14.3384C16.3994 14.2697 16.3693 14.198 16.3363 14.1292C16.3122 14.0635 16.2882 13.9948 16.2612 13.926C15.9907 13.2178 15.7172 12.5006 15.4467 11.7744C15.1763 11.0482 14.8938 10.2981 14.6053 9.5211C14.3168 8.74412 14.0133 7.93724 13.6977 7.0975C13.3822 6.26074 13.0456 5.37318 12.697 4.44079H12.5618C12.5167 4.51849 12.4506 4.6201 12.3664 4.74561C12.2823 4.87112 12.1771 4.99963 12.0539 5.13411C11.9277 5.26858 11.7864 5.39709 11.6211 5.5226C11.4558 5.64811 11.2725 5.75271 11.0712 5.84236L11.2395 6.21292C10.969 6.84348 10.6805 7.52185 10.374 8.24804C10.2778 8.47815 10.1786 8.70527 10.0795 8.93239C10.1335 8.69929 10.1636 8.45424 10.1636 8.18827C10.1636 7.51289 9.99831 6.92716 9.67075 6.43407C9.34318 5.93799 8.92846 5.55547 8.4326 5.28651C7.92472 5.0056 7.38078 4.82929 6.80378 4.75458C6.22678 4.68285 5.56564 4.644 4.81734 4.644H4.05402C3.75951 4.644 3.44697 4.644 3.11339 4.65297C2.77981 4.65895 2.44323 4.66193 2.10364 4.66193C1.76405 4.66193 1.45151 4.66194 1.16301 4.6709C0.874514 4.67688 0.622077 4.67987 0.408708 4.67987H0V4.89802H4.70014C5.02771 4.89802 5.34626 4.92193 5.64978 4.96675C5.95631 5.01158 6.24481 5.09526 6.51528 5.22077C7.05922 5.48076 7.49798 5.86328 7.83156 6.36832C8.16514 6.87337 8.33343 7.45312 8.33343 8.10758C8.33343 8.81584 8.1411 9.45536 7.75643 10.0232C7.37177 10.591 6.8158 11.0004 6.09155 11.2454C5.73994 11.3709 5.36128 11.4456 4.95558 11.4725C4.60397 11.4965 4.22832 11.5084 3.83464 11.5114H1.79711V11.6787C1.79711 12.0164 1.79711 12.3452 1.7881 12.6649C1.77908 12.9847 1.77608 13.2805 1.77007 13.5495C1.76405 13.8185 1.76105 14.0336 1.76105 14.192C1.76105 14.3713 1.75504 14.5566 1.74302 14.7479C1.731 14.9391 1.71898 15.1184 1.70095 15.2888C1.68291 15.4591 1.65887 15.6085 1.62582 15.746C1.59276 15.8805 1.54768 15.9821 1.49058 16.0508C1.34333 16.2301 1.13897 16.3646 0.880525 16.4572C0.622077 16.5499 0.348603 16.6156 0.0661137 16.6604V16.8278H5.49652V16.6604C5.03372 16.6365 4.67009 16.5529 4.41164 16.4064C4.15019 16.26 3.97589 16.1136 3.88573 15.9671C3.77153 15.7998 3.71143 15.5846 3.69941 15.3246C3.68738 15.0646 3.67536 14.7568 3.66635 14.3952C3.66635 14.204 3.66635 14.0276 3.65733 13.8633C3.65132 13.7019 3.64832 13.5226 3.64832 13.3313V11.7445H4.5649C4.91651 11.7445 5.27413 11.7295 5.64377 11.7027C6.01041 11.6758 6.37704 11.6339 6.73767 11.5771C7.1013 11.5204 7.43788 11.4367 7.75643 11.3231C8.06296 11.2096 8.36048 11.0601 8.65499 10.8749C8.9495 10.6896 9.20794 10.4684 9.42733 10.2084C9.52349 10.0949 9.60764 9.97236 9.68577 9.84684C9.60463 10.0321 9.5265 10.2204 9.44836 10.4027C9.13582 11.1169 8.8353 11.8132 8.54079 12.4886C8.24628 13.164 7.98182 13.7647 7.74441 14.2936C7.48296 14.8674 7.26358 15.3007 7.08327 15.5936C6.90295 15.8864 6.77073 16.0717 6.69259 16.1494C6.65953 16.1942 6.53632 16.2779 6.32896 16.4034C6.1186 16.529 5.86916 16.6066 5.57465 16.6395V16.8248H9.18991V16.6575C9.04266 16.6335 8.88639 16.6096 8.72411 16.5827C8.55882 16.5558 8.40856 16.511 8.26431 16.4483C8.12307 16.3855 8.00586 16.3078 7.91571 16.2122C7.82555 16.1165 7.78047 15.997 7.78047 15.8506C7.78047 15.6025 7.90068 15.1752 8.13809 14.5685C8.29737 14.1741 8.45364 13.7826 8.61292 13.3971C8.77219 13.0086 8.93447 12.6022 9.10577 12.1748H9.11178C9.42732 11.4008 9.84204 10.3877 10.0133 9.97236C10.2447 9.40456 10.4581 8.89653 10.6504 8.44527C10.8428 7.99701 11.0051 7.61151 11.1343 7.29772C11.2635 6.98394 11.3627 6.75084 11.4318 6.60441C11.534 6.85245 11.6602 7.16922 11.8135 7.55771C11.9667 7.94621 12.135 8.37355 12.3213 8.83975C12.5077 9.30594 12.7 9.79305 12.8983 10.3011C12.9975 10.5521 13.301 11.362 13.6076 12.1748H13.6196C13.7879 12.6141 13.9472 13.0355 14.0944 13.4419C14.1725 13.6601 14.2477 13.8633 14.3168 14.0605C14.3168 14.0605 14.3168 14.0635 14.3168 14.0665C14.3769 14.2338 14.431 14.3952 14.4851 14.5476C14.5993 14.8793 14.6864 15.1603 14.7495 15.3904C14.8127 15.6205 14.8427 15.7878 14.8427 15.8894C14.8427 16.0478 14.7886 16.1763 14.6804 16.2779C14.5722 16.3795 14.449 16.4572 14.3078 16.514C14.1665 16.5708 14.0313 16.6096 13.8991 16.6335C13.7698 16.6575 13.6857 16.6664 13.6526 16.6664V16.8338H18.3408C18.3708 16.8397 18.4009 16.8457 18.4309 16.8517C18.8276 16.9204 19.3024 16.9533 19.8554 16.9533C20.4564 16.9533 21.0124 16.8876 21.5263 16.7591V16.8338H25.1415V16.6664C24.9943 16.6425 24.838 16.6186 24.6757 16.5917C24.5104 16.5648 24.3602 16.52 24.2159 16.4572C24.0747 16.3945 23.9575 16.3168 23.8673 16.2211C23.7772 16.1255 23.7321 16.006 23.7321 15.8595C23.7321 15.6743 23.7982 15.3874 23.9334 14.9989C23.9395 14.9869 23.9485 14.975 23.9545 14.963C24.0537 14.7688 24.1288 14.5596 24.1859 14.3414C24.3121 14.0276 24.4383 13.7139 24.5675 13.4001C24.7268 13.0116 24.8891 12.6052 25.0604 12.1778H25.0664C25.382 11.4038 25.7967 10.3907 25.968 9.97535C26.1994 9.40755 26.4127 8.89951 26.6051 8.44826C26.7974 8 26.9597 7.61449 27.0889 7.30071C27.2181 6.98692 27.3173 6.75383 27.3864 6.6074C27.4886 6.85543 27.6148 7.17221 27.7681 7.5607C27.9214 7.9492 28.0896 8.37654 28.276 8.84273C28.4623 9.30893 28.6546 9.79604 28.853 10.3041C28.9521 10.5551 29.2557 11.365 29.5622 12.1778H29.5742C29.7425 12.6171 29.9018 13.0385 30.049 13.4449C30.1272 13.6631 30.2023 13.8663 30.2714 14.0635C30.2714 14.0635 30.2714 14.0665 30.2714 14.0695C30.3315 14.2368 30.3856 14.3982 30.4397 14.5506C30.5539 14.8823 30.6411 15.1632 30.7042 15.3933C30.7673 15.6235 30.7973 15.7908 30.7973 15.8924C30.7973 16.0508 30.7432 16.1793 30.6351 16.2809C30.5269 16.3825 30.4037 16.4602 30.2624 16.517C30.1212 16.5738 29.9859 16.6126 29.8537 16.6365C29.7245 16.6604 29.6403 16.6694 29.6073 16.6694V16.8368H34.2653C34.2653 16.9503 34.2653 17.0699 34.2593 17.1774C34.2473 17.7004 34.2443 18.1128 34.2443 18.4176C34.2233 19.0273 34.1842 19.6369 34.1301 20.2436C34.076 20.8532 33.9828 21.3971 33.8506 21.8752C33.6974 22.3773 33.4509 22.8016 33.1113 23.1483C32.7718 23.495 32.33 23.6713 31.783 23.6713C31.6087 23.6713 31.4224 23.6324 31.2241 23.5577C31.0287 23.483 30.8755 23.3665 30.7643 23.214V23.1154C31.2241 23.0497 31.6057 22.9033 31.9123 22.6761C32.2188 22.449 32.3721 22.0844 32.3721 21.5824C32.3721 21.1461 32.2128 20.7725 31.8972 20.4557C31.5787 20.1419 31.203 19.9836 30.7643 19.9836C30.2594 19.9836 29.8116 20.1479 29.4209 20.4737C29.0273 20.7994 28.8319 21.2238 28.8319 21.7467C28.8319 22.1591 28.9131 22.5118 29.0784 22.8076C29.2436 23.1005 29.46 23.3306 29.7335 23.492C30.007 23.6563 30.3135 23.7789 30.6531 23.8685C30.9927 23.9582 31.3353 24 31.6869 24C32.321 24 33.0152 23.8805 33.7695 23.6414C34.5238 23.4023 35.251 23.0108 35.9513 22.4669C36.5192 22.0306 36.979 21.5585 37.3276 21.0474C37.6762 20.5364 37.8535 19.9208 37.8535 19.2036V7.98207C37.8535 7.43818 37.8596 6.90026 37.8686 6.36832C37.8806 5.83638 37.8836 5.29847 37.8836 4.75458C37.9046 4.25551 37.9287 3.71759 37.9497 3.14083C37.9708 2.56406 38.0699 2.10385 38.2442 1.7542C38.5297 1.23123 38.9444 0.884573 39.4914 0.711244C40.0383 0.537916 40.5402 0.418379 41 0.352634V0.0268958H30.8965L30.8905 0Z" fill="#BE1622"/>
</svg>
